<svg width="28" height="28" viewBox="0 0 28 28" fill="none" xmlns="http://www.w3.org/2000/svg">
<path d="M0.120117 12.1167C0.120117 7.91633 0.120117 5.81614 0.937568 4.2118C1.65662 2.80059 2.80397 1.65323 4.21519 0.934181C5.81953 0.11673 7.91972 0.11673 12.1201 0.11673H15.9035C20.1038 0.11673 22.204 0.11673 23.8084 0.934181C25.2196 1.65323 26.3669 2.80059 27.086 4.2118C27.9034 5.81614 27.9034 7.91634 27.9034 12.1167V15.9001C27.9034 20.1005 27.9034 22.2007 27.086 23.805C26.3669 25.2162 25.2196 26.3636 23.8084 27.0826C22.204 27.9001 20.1038 27.9001 15.9034 27.9001H12.1201C7.91972 27.9001 5.81953 27.9001 4.21519 27.0826C2.80397 26.3636 1.65662 25.2162 0.937568 23.805C0.120117 22.2007 0.120117 20.1005 0.120117 15.9001V12.1167Z" fill="#222226"/>
<path d="M14.0005 4.27771C11.3601 4.27771 11.0287 4.28926 9.99164 4.33645C8.95662 4.38384 8.25013 4.5477 7.63195 4.78813C6.99251 5.03645 6.45008 5.36862 5.90968 5.90922C5.36888 6.44961 5.0367 6.99203 4.78756 7.63127C4.54653 8.24964 4.38247 8.95633 4.33588 9.99093C4.2895 11.028 4.27734 11.3595 4.27734 13.9999C4.27734 16.6403 4.28909 16.9707 4.33608 18.0077C4.38368 19.0427 4.54754 19.7492 4.78777 20.3674C5.03629 21.0068 5.36847 21.5492 5.90907 22.0896C6.44927 22.6304 6.9917 22.9634 7.63074 23.2117C8.24932 23.4522 8.95601 23.616 9.99083 23.6634C11.0279 23.7106 11.359 23.7222 13.9993 23.7222C16.6399 23.7222 16.9702 23.7106 18.0073 23.6634C19.0423 23.616 19.7496 23.4522 20.3682 23.2117C21.0074 22.9634 21.5491 22.6304 22.0893 22.0896C22.6301 21.5492 22.9622 21.0068 23.2114 20.3676C23.4504 19.7492 23.6144 19.0425 23.6631 18.0079C23.7096 16.9709 23.7218 16.6403 23.7218 13.9999C23.7218 11.3595 23.7096 11.0282 23.6631 9.99114C23.6144 8.95612 23.4504 8.24964 23.2114 7.63147C22.9622 6.99203 22.6301 6.44961 22.0893 5.90922C21.5485 5.36842 21.0076 5.03625 20.3676 4.78813C19.7478 4.5477 19.0409 4.38384 18.0059 4.33645C16.9688 4.28926 16.6387 4.27771 13.9974 4.27771H14.0005ZM13.1283 6.02974C13.3872 6.02933 13.676 6.02974 14.0005 6.02974C16.5963 6.02974 16.904 6.03905 17.9291 6.08564C18.877 6.12898 19.3915 6.28737 19.7342 6.42045C20.1879 6.59666 20.5114 6.80731 20.8515 7.14759C21.1918 7.48787 21.4024 7.81194 21.579 8.26564C21.7121 8.60795 21.8707 9.12242 21.9138 10.0703C21.9604 11.0952 21.9706 11.4031 21.9706 13.9977C21.9706 16.5923 21.9604 16.9002 21.9138 17.9251C21.8705 18.873 21.7121 19.3875 21.579 19.7298C21.4028 20.1835 21.1918 20.5065 20.8515 20.8466C20.5112 21.1869 20.1881 21.3975 19.7342 21.5737C19.3919 21.7074 18.877 21.8654 17.9291 21.9088C16.9042 21.9553 16.5963 21.9655 14.0005 21.9655C11.4044 21.9655 11.0967 21.9553 10.0719 21.9088C9.12392 21.865 8.60945 21.7066 8.26654 21.5735C7.81283 21.3973 7.48875 21.1867 7.14847 20.8464C6.80819 20.5061 6.59754 20.1829 6.42091 19.729C6.28784 19.3867 6.12924 18.8722 6.0861 17.9243C6.03952 16.8994 6.0302 16.5915 6.0302 13.9953C6.0302 11.399 6.03952 11.0928 6.0861 10.0679C6.12945 9.11999 6.28784 8.60552 6.42091 8.26281C6.59713 7.8091 6.80819 7.48503 7.14847 7.14475C7.48875 6.80447 7.81283 6.59383 8.26654 6.41721C8.60925 6.28353 9.12392 6.12554 10.0719 6.08199C10.9687 6.04148 11.3163 6.02933 13.1283 6.02731V6.02974ZM19.1902 7.64403C18.5461 7.64403 18.0235 8.16599 18.0235 8.81029C18.0235 9.45439 18.5461 9.97696 19.1902 9.97696C19.8343 9.97696 20.3569 9.45439 20.3569 8.81029C20.3569 8.16619 19.8343 7.64362 19.1902 7.64362V7.64403ZM14.0005 9.00717C11.2432 9.00717 9.00766 11.2427 9.00766 13.9999C9.00766 16.7572 11.2432 18.9917 14.0005 18.9917C16.7578 18.9917 18.9925 16.7572 18.9925 13.9999C18.9925 11.2427 16.7576 9.00717 14.0003 9.00717H14.0005ZM14.0005 10.7592C15.7902 10.7592 17.2413 12.21 17.2413 13.9999C17.2413 15.7896 15.7902 17.2407 14.0005 17.2407C12.2106 17.2407 10.7597 15.7896 10.7597 13.9999C10.7597 12.21 12.2106 10.7592 14.0005 10.7592V10.7592Z" fill="#EDF2F4"/>
</svg>
