<svg xmlns="http://www.w3.org/2000/svg" width="130" height="60"><path fill-rule="evenodd" d="M110.421 49.707c1.273 0 2.701.746 1.776 3.055h-1.983c.471-1.228.248-1.588-.269-1.588-.547 0-.897.441-1.039.881-.207.625.079.99.619 1.468.909.802 2.011 1.713 1.467 3.381-.523 1.614-1.472 2.514-3.734 2.514-1.465 0-2.514-.827-1.911-2.682l.328-1.013h1.982l-.341 1.052c-.233.723-.174 1.176.418 1.176.724 0 1.134-.629 1.334-1.24.251-.773-.119-1.188-.735-1.748-.621-.547-1.722-1.651-1.351-3.027.451-1.387 1.37-2.229 3.439-2.229zm-34.798 0c1.274 0 2.701.746 1.777 3.055h-1.983c.472-1.228.249-1.588-.269-1.588-.547 0-.897.441-1.04.881-.207.625.08.99.619 1.468.909.802 2.011 1.713 1.467 3.381-.523 1.614-1.472 2.514-3.733 2.514-1.467 0-2.513-.827-1.912-2.682l.329-1.013h1.981l-.341 1.052c-.234.723-.173 1.176.418 1.176.725 0 1.135-.629 1.335-1.24.25-.773-.119-1.188-.735-1.748-.622-.547-1.722-1.651-1.351-3.027.451-1.387 1.37-2.229 3.438-2.229zm-9.038.188l-2.288 7.055c-.194.601-.13 1.001.461 1.001.635 0 .912-.4 1.108-1.001l2.287-7.055h1.981l-2.296 7.082c-.627 1.816-1.577 2.441-3.556 2.441-1.616 0-2.402-1.107-1.913-2.639l2.234-6.884h1.982zm23.776 0c1.509 0 2.314.893 1.79 2.507l-.471 1.453c-.376 1.135-.882 1.713-1.939 2.064l.558 3.311h-2.07l-.407-3.013h-.546l-.978 3.013h-1.981l3.026-9.335h3.018zm-79.246 0c1.996 0 2.721.893 2.198 2.507l-.053.16c-.191.588-.683 1.504-1.967 1.64 1.16.214 1.243 1.189 1.032 1.841l-.217.668c-.523 1.613-1.323 2.519-3.332 2.519H5.685l3.026-9.335h2.404zm7.79 0l-3.028 9.335h-1.982l3.026-9.335h1.984zm4.77 0l-1.009 3.107 2.428-3.107h2.41l-3.584 4.184.928 5.151H22.57l-.354-3.628-.591.615-.977 3.013h-1.983l3.026-9.335h1.984zm10.975 0l-.475 1.466h-2.677l-.757 2.335h1.686l-.475 1.467h-1.687l-.843 2.601h2.973l-.476 1.466h-4.955l3.028-9.335h4.658zm10.437 0L42.06 59.23h-1.981l3.026-9.335h1.982zm60.202 0l-.477 1.466h-2.677l-.756 2.335h1.686l-.476 1.467h-1.686l-.843 2.601h2.973l-.475 1.466h-4.956l3.026-9.335h4.661zm-7.527 0l-3.027 9.335h-1.983l3.026-9.335h1.984zm-48.055 0l.285 4.787 1.551-4.787h1.982l-3.028 9.335h-1.829l-.351-4.587-1.487 4.587h-1.981l3.026-9.335h1.832zm35.487 0l-.475 1.466h-1.587l-2.549 7.869h-1.984l2.552-7.869h-1.586l.477-1.466h5.152zm-26.096 0c1.478 0 2.519.759 1.978 2.425l-1.448 4.47c-.541 1.667-1.328 2.44-3.455 2.44h-2.868l3.026-9.335h2.767zM9.595 55.016h-.562l-.891 2.748h.459c.695 0 1.26-.241 1.499-.974l.22-.68c.273-.84-.235-1.094-.725-1.094zm49.025-3.655h-.783l-2.075 6.403h.698c.562 0 1-.401 1.195-1l1.431-4.416c.195-.6.096-.987-.466-.987zm30.704 0h-.474l-1.099 3.388h.577c.814 0 1.193-.347 1.461-1.173l.363-1.12c.234-.722-.134-1.095-.828-1.095zm-79.105 0l-.71 2.188c1.183 0 1.497-.149 1.802-1.093.283-.868-.087-1.095-1.092-1.095zM103.674.254l-1.591 5.643h-25.81l-7.25 21.042L86.356 9.546h15.899l-2.539 11.856 13.368-11.858h16.584l-6.849 31.073-16.488.001 1.718-11.133-12.604 11.133H80.146l2.01-11.248-12.075 11.248H31.049L22.67 29.484l-4.557 11.134-18.112.002L13.18 9.548l17.948.022-5.065 12.047 15.065-12.07h12.283L38.722 21.818l8.495 11.164 10.774-27.08H32.427L34.476.255l69.198-.001z"/></svg>